<?xml version="1.0" ?>
<mxfile host="65bd71144e">
	<diagram id="RFndyrCF2-3MIdXtw8gX" name="Page-1">
		<mxGraphModel dx="422" dy="816" grid="1" gridSize="10" guides="1" tooltips="1" connect="1" arrows="1" fold="1" page="1" pageScale="1" pageWidth="850" pageHeight="1100" math="0" shadow="0">
			<root>
				<mxCell id="0"/>
				<mxCell id="1" parent="0"/>
				<mxCell id="4940006064" value="&lt;b&gt; type: Module&lt;/b&gt;" style="rounded=1;whiteSpace=wrap;html=1;fillColor=#CCCCFF;strokeColor=#000000;" parent="1" vertex="1">
					<mxGeometry x="1287.02" y="0.0" width="120" height="60" as="geometry"/>
				</mxCell>
				<mxCell id="4940006208" value="&lt;b&gt; type: FunctionDef&lt;/b&gt;&lt;br&gt;fun_name: main" style="rounded=1;whiteSpace=wrap;html=1;fillColor=#FFCCCC;strokeColor=#000000;" parent="1" vertex="1">
					<mxGeometry x="1287.02" y="79.2" width="120" height="60" as="geometry"/>
				</mxCell>
				<mxCell id="4940006256" value="&lt;b&gt; type: arguments&lt;/b&gt;" style="rounded=1;whiteSpace=wrap;html=1;fillColor=#FFF2CC;strokeColor=#000000;" parent="1" vertex="1">
					<mxGeometry x="1801.02" y="158.4" width="120" height="60" as="geometry"/>
				</mxCell>
				<mxCell id="4940016000" value="&lt;b&gt; type: FunctionDef&lt;/b&gt;&lt;br&gt;fun_name: plus" style="rounded=1;whiteSpace=wrap;html=1;fillColor=#FFCCCC;strokeColor=#000000;" parent="1" vertex="1">
					<mxGeometry x="1669.02" y="158.4" width="120" height="60" as="geometry"/>
				</mxCell>
				<mxCell id="4940019504" value="&lt;b&gt; type: arguments&lt;/b&gt;" style="rounded=1;whiteSpace=wrap;html=1;fillColor=#FFF2CC;strokeColor=#000000;" parent="1" vertex="1">
					<mxGeometry x="1966.02" y="237.60000000000002" width="120" height="60" as="geometry"/>
				</mxCell>
				<mxCell id="4940019456" value="&lt;b&gt; type: arg&lt;/b&gt;&lt;br&gt;arg: a" style="rounded=1;whiteSpace=wrap;html=1;fillColor=#FFF2CC;strokeColor=#000000;" parent="1" vertex="1">
					<mxGeometry x="1966.02" y="316.8" width="120" height="60" as="geometry"/>
				</mxCell>
				<mxCell id="4940019840" value="&lt;b&gt; type: arg&lt;/b&gt;&lt;br&gt;arg: b" style="rounded=1;whiteSpace=wrap;html=1;fillColor=#FFF2CC;strokeColor=#000000;" parent="1" vertex="1">
					<mxGeometry x="2098.019" y="316.8" width="120" height="60" as="geometry"/>
				</mxCell>
				<mxCell id="4951356704" value="&lt;b&gt; type: Return&lt;/b&gt;" style="rounded=1;whiteSpace=wrap;html=1;fillColor=#CCE5FF;strokeColor=#000000;" parent="1" vertex="1">
					<mxGeometry x="1768.02" y="237.60000000000002" width="120" height="60" as="geometry"/>
				</mxCell>
				<mxCell id="4951349600" value="&lt;b&gt; type: BinOp&lt;/b&gt;" style="rounded=1;whiteSpace=wrap;html=1;fillColor=#CCCCFF;strokeColor=#000000;" parent="1" vertex="1">
					<mxGeometry x="1834.02" y="316.8" width="120" height="60" as="geometry"/>
				</mxCell>
				<mxCell id="4951352048" value="&lt;b&gt; type: Name&lt;/b&gt;&lt;br&gt;id: a" style="rounded=1;whiteSpace=wrap;html=1;fillColor=#FFF2CC;strokeColor=#000000;" parent="1" vertex="1">
					<mxGeometry x="1966.02" y="396.00000000000006" width="120" height="60" as="geometry"/>
				</mxCell>
				<mxCell id="4307813232" value="&lt;b&gt; type: Load&lt;/b&gt;" style="rounded=1;whiteSpace=wrap;html=1;fillColor=#FFF2CC;strokeColor=#000000;" parent="1" vertex="1">
					<mxGeometry x="1221.02" y="475.20000000000005" width="120" height="60" as="geometry"/>
				</mxCell>
				<mxCell id="4307813808" value="&lt;b&gt; type: Add&lt;/b&gt;" style="rounded=1;whiteSpace=wrap;html=1;fillColor=#FFF2CC;strokeColor=#000000;" parent="1" vertex="1">
					<mxGeometry x="1702.02" y="396.00000000000006" width="120" height="60" as="geometry"/>
				</mxCell>
				<mxCell id="4951353728" value="&lt;b&gt; type: Name&lt;/b&gt;&lt;br&gt;id: b" style="rounded=1;whiteSpace=wrap;html=1;fillColor=#FFF2CC;strokeColor=#000000;" parent="1" vertex="1">
					<mxGeometry x="1834.02" y="396.00000000000006" width="120" height="60" as="geometry"/>
				</mxCell>
				<mxCell id="4951354112" value="&lt;b&gt; type: FunctionDef&lt;/b&gt;&lt;br&gt;fun_name: minus" style="rounded=1;whiteSpace=wrap;html=1;fillColor=#FFCCCC;strokeColor=#000000;" parent="1" vertex="1">
					<mxGeometry x="1438.02" y="158.4" width="120" height="60" as="geometry"/>
				</mxCell>
				<mxCell id="4951348880" value="&lt;b&gt; type: arguments&lt;/b&gt;" style="rounded=1;whiteSpace=wrap;html=1;fillColor=#FFF2CC;strokeColor=#000000;" parent="1" vertex="1">
					<mxGeometry x="1570.02" y="237.60000000000002" width="120" height="60" as="geometry"/>
				</mxCell>
				<mxCell id="4951344656" value="&lt;b&gt; type: arg&lt;/b&gt;&lt;br&gt;arg: a" style="rounded=1;whiteSpace=wrap;html=1;fillColor=#FFF2CC;strokeColor=#000000;" parent="1" vertex="1">
					<mxGeometry x="1702.02" y="316.8" width="120" height="60" as="geometry"/>
				</mxCell>
				<mxCell id="4951345184" value="&lt;b&gt; type: arg&lt;/b&gt;&lt;br&gt;arg: b" style="rounded=1;whiteSpace=wrap;html=1;fillColor=#FFF2CC;strokeColor=#000000;" parent="1" vertex="1">
					<mxGeometry x="1570.02" y="316.8" width="120" height="60" as="geometry"/>
				</mxCell>
				<mxCell id="4951352864" value="&lt;b&gt; type: Return&lt;/b&gt;" style="rounded=1;whiteSpace=wrap;html=1;fillColor=#CCE5FF;strokeColor=#000000;" parent="1" vertex="1">
					<mxGeometry x="1438.02" y="237.60000000000002" width="120" height="60" as="geometry"/>
				</mxCell>
				<mxCell id="4951344560" value="&lt;b&gt; type: BinOp&lt;/b&gt;" style="rounded=1;whiteSpace=wrap;html=1;fillColor=#CCCCFF;strokeColor=#000000;" parent="1" vertex="1">
					<mxGeometry x="1438.02" y="316.8" width="120" height="60" as="geometry"/>
				</mxCell>
				<mxCell id="4951354304" value="&lt;b&gt; type: Name&lt;/b&gt;&lt;br&gt;id: a" style="rounded=1;whiteSpace=wrap;html=1;fillColor=#FFF2CC;strokeColor=#000000;" parent="1" vertex="1">
					<mxGeometry x="1570.02" y="396.00000000000006" width="120" height="60" as="geometry"/>
				</mxCell>
				<mxCell id="4307813904" value="&lt;b&gt; type: Sub&lt;/b&gt;" style="rounded=1;whiteSpace=wrap;html=1;fillColor=#FFF2CC;strokeColor=#000000;" parent="1" vertex="1">
					<mxGeometry x="1306.02" y="396.00000000000006" width="120" height="60" as="geometry"/>
				</mxCell>
				<mxCell id="4951353584" value="&lt;b&gt; type: Name&lt;/b&gt;&lt;br&gt;id: b" style="rounded=1;whiteSpace=wrap;html=1;fillColor=#FFF2CC;strokeColor=#000000;" parent="1" vertex="1">
					<mxGeometry x="1438.02" y="396.00000000000006" width="120" height="60" as="geometry"/>
				</mxCell>
				<mxCell id="4951346480" value="&lt;b&gt; type: Assign&lt;/b&gt;" style="rounded=1;whiteSpace=wrap;html=1;fillColor=#FFD9B3;strokeColor=#000000;" parent="1" vertex="1">
					<mxGeometry x="1136.0" y="158.4" width="120" height="60" as="geometry"/>
				</mxCell>
				<mxCell id="4951345664" value="&lt;b&gt; type: Tuple&lt;/b&gt;" style="rounded=1;whiteSpace=wrap;html=1;fillColor=#FFCCCC;strokeColor=#000000;" parent="1" vertex="1">
					<mxGeometry x="542.0" y="237.60000000000002" width="120" height="60" as="geometry"/>
				</mxCell>
				<mxCell id="4951353632" value="&lt;b&gt; type: Name&lt;/b&gt;&lt;br&gt;id: x" style="rounded=1;whiteSpace=wrap;html=1;fillColor=#FFF2CC;strokeColor=#000000;" parent="1" vertex="1">
					<mxGeometry x="740.0" y="316.8" width="120" height="60" as="geometry"/>
				</mxCell>
				<mxCell id="4307813328" value="&lt;b&gt; type: Store&lt;/b&gt;" style="rounded=1;whiteSpace=wrap;html=1;fillColor=#FFF2CC;strokeColor=#000000;" parent="1" vertex="1">
					<mxGeometry x="474.0" y="396.00000000000006" width="120" height="60" as="geometry"/>
				</mxCell>
				<mxCell id="4951357952" value="&lt;b&gt; type: Name&lt;/b&gt;&lt;br&gt;id: y" style="rounded=1;whiteSpace=wrap;html=1;fillColor=#FFF2CC;strokeColor=#000000;" parent="1" vertex="1">
					<mxGeometry x="608.0" y="316.8" width="120" height="60" as="geometry"/>
				</mxCell>
				<mxCell id="4951346960" value="&lt;b&gt; type: Name&lt;/b&gt;&lt;br&gt;id: z" style="rounded=1;whiteSpace=wrap;html=1;fillColor=#FFF2CC;strokeColor=#000000;" parent="1" vertex="1">
					<mxGeometry x="476.0" y="316.8" width="120" height="60" as="geometry"/>
				</mxCell>
				<mxCell id="4951343456" value="&lt;b&gt; type: Name&lt;/b&gt;&lt;br&gt;id: w" style="rounded=1;whiteSpace=wrap;html=1;fillColor=#FFF2CC;strokeColor=#000000;" parent="1" vertex="1">
					<mxGeometry x="344.0" y="316.8" width="120" height="60" as="geometry"/>
				</mxCell>
				<mxCell id="4951354016" value="&lt;b&gt; type: Tuple&lt;/b&gt;" style="rounded=1;whiteSpace=wrap;html=1;fillColor=#FFCCCC;strokeColor=#000000;" parent="1" vertex="1">
					<mxGeometry x="1136.0" y="237.60000000000002" width="120" height="60" as="geometry"/>
				</mxCell>
				<mxCell id="4951350608" value="&lt;b&gt; type: Constant&lt;/b&gt;&lt;br&gt;value: 1" style="rounded=1;whiteSpace=wrap;html=1;fillColor=#FFCCCC;strokeColor=#000000;" parent="1" vertex="1">
					<mxGeometry x="1136.0" y="316.8" width="120" height="60" as="geometry"/>
				</mxCell>
				<mxCell id="4951347392" value="&lt;b&gt; type: Constant&lt;/b&gt;&lt;br&gt;value: 2" style="rounded=1;whiteSpace=wrap;html=1;fillColor=#FFCCCC;strokeColor=#000000;" parent="1" vertex="1">
					<mxGeometry x="1004.0" y="316.8" width="120" height="60" as="geometry"/>
				</mxCell>
				<mxCell id="4951355792" value="&lt;b&gt; type: Constant&lt;/b&gt;&lt;br&gt;value: 3" style="rounded=1;whiteSpace=wrap;html=1;fillColor=#FFCCCC;strokeColor=#000000;" parent="1" vertex="1">
					<mxGeometry x="872.0" y="316.8" width="120" height="60" as="geometry"/>
				</mxCell>
				<mxCell id="4951359104" value="&lt;b&gt; type: Constant&lt;/b&gt;&lt;br&gt;value: 4" style="rounded=1;whiteSpace=wrap;html=1;fillColor=#FFCCCC;strokeColor=#000000;" parent="1" vertex="1">
					<mxGeometry x="1306.02" y="316.8" width="120" height="60" as="geometry"/>
				</mxCell>
				<mxCell id="4951355456" value="&lt;b&gt; type: Assign&lt;/b&gt;" style="rounded=1;whiteSpace=wrap;html=1;fillColor=#FFD9B3;strokeColor=#000000;" parent="1" vertex="1">
					<mxGeometry x="174.0" y="237.60000000000002" width="120" height="60" as="geometry"/>
				</mxCell>
				<mxCell id="4951344512" value="&lt;b&gt; type: Name&lt;/b&gt;&lt;br&gt;id: res" style="rounded=1;whiteSpace=wrap;html=1;fillColor=#FFF2CC;strokeColor=#000000;" parent="1" vertex="1">
					<mxGeometry x="174.0" y="316.8" width="120" height="60" as="geometry"/>
				</mxCell>
				<mxCell id="4951350848" value="&lt;b&gt; type: Call&lt;/b&gt;" style="rounded=1;whiteSpace=wrap;html=1;fillColor=#FFF2CC;strokeColor=#000000;" parent="1" vertex="1">
					<mxGeometry x="42.0" y="316.8" width="120" height="60" as="geometry"/>
				</mxCell>
				<mxCell id="4951344416" value="&lt;b&gt; type: Name&lt;/b&gt;&lt;br&gt;id: plus" style="rounded=1;whiteSpace=wrap;html=1;fillColor=#FFF2CC;strokeColor=#000000;" parent="1" vertex="1">
					<mxGeometry x="339.0" y="396.00000000000006" width="120" height="60" as="geometry"/>
				</mxCell>
				<mxCell id="4951348256" value="&lt;b&gt; type: Name&lt;/b&gt;&lt;br&gt;id: x" style="rounded=1;whiteSpace=wrap;html=1;fillColor=#FFF2CC;strokeColor=#000000;" parent="1" vertex="1">
					<mxGeometry x="188.0" y="396.00000000000006" width="120" height="60" as="geometry"/>
				</mxCell>
				<mxCell id="4951348544" value="&lt;b&gt; type: Name&lt;/b&gt;&lt;br&gt;id: y" style="rounded=1;whiteSpace=wrap;html=1;fillColor=#FFF2CC;strokeColor=#000000;" parent="1" vertex="1">
					<mxGeometry x="47.0" y="396.00000000000006" width="120" height="60" as="geometry"/>
				</mxCell>
				<mxCell id="4951343744" value="&lt;b&gt; type: Return&lt;/b&gt;" style="rounded=1;whiteSpace=wrap;html=1;fillColor=#CCE5FF;strokeColor=#000000;" parent="1" vertex="1">
					<mxGeometry x="264.0" y="158.4" width="120" height="60" as="geometry"/>
				</mxCell>
				<mxCell id="4951348064" value="&lt;b&gt; type: Name&lt;/b&gt;&lt;br&gt;id: res" style="rounded=1;whiteSpace=wrap;html=1;fillColor=#FFF2CC;strokeColor=#000000;" parent="1" vertex="1">
					<mxGeometry x="0.0" y="237.60000000000002" width="120" height="60" as="geometry"/>
				</mxCell>
				<mxCell id="4940006064_4940006208" value="" style="endArrow=classic;html=1;" parent="1" source="4940006064" target="4940006208" edge="1">
					<mxGeometry width="50" height="50" relative="1" as="geometry">
						<mxPoint x="400" y="440" as="sourcePoint"/>
						<mxPoint x="450" y="390" as="targetPoint"/>
					</mxGeometry>
				</mxCell>
				<mxCell id="4940006208_4940006256" value="" style="endArrow=classic;html=1;" parent="1" source="4940006208" target="4940006256" edge="1">
					<mxGeometry width="50" height="50" relative="1" as="geometry">
						<mxPoint x="400" y="440" as="sourcePoint"/>
						<mxPoint x="450" y="390" as="targetPoint"/>
					</mxGeometry>
				</mxCell>
				<mxCell id="4940006208_4940016000" value="" style="endArrow=classic;html=1;" parent="1" source="4940006208" target="4940016000" edge="1">
					<mxGeometry width="50" height="50" relative="1" as="geometry">
						<mxPoint x="400" y="440" as="sourcePoint"/>
						<mxPoint x="450" y="390" as="targetPoint"/>
					</mxGeometry>
				</mxCell>
				<mxCell id="4940006208_4951354112" value="" style="endArrow=classic;html=1;" parent="1" source="4940006208" target="4951354112" edge="1">
					<mxGeometry width="50" height="50" relative="1" as="geometry">
						<mxPoint x="400" y="440" as="sourcePoint"/>
						<mxPoint x="450" y="390" as="targetPoint"/>
					</mxGeometry>
				</mxCell>
				<mxCell id="4940006208_4951346480" value="" style="endArrow=classic;html=1;" parent="1" source="4940006208" target="4951346480" edge="1">
					<mxGeometry width="50" height="50" relative="1" as="geometry">
						<mxPoint x="400" y="440" as="sourcePoint"/>
						<mxPoint x="450" y="390" as="targetPoint"/>
					</mxGeometry>
				</mxCell>
				<mxCell id="4940006208_4951355456" value="" style="endArrow=classic;html=1;" parent="1" source="4940006208" target="4951355456" edge="1">
					<mxGeometry width="50" height="50" relative="1" as="geometry">
						<mxPoint x="400" y="440" as="sourcePoint"/>
						<mxPoint x="450" y="390" as="targetPoint"/>
					</mxGeometry>
				</mxCell>
				<mxCell id="4940006208_4951343744" value="" style="endArrow=classic;html=1;" parent="1" source="4940006208" target="4951343744" edge="1">
					<mxGeometry width="50" height="50" relative="1" as="geometry">
						<mxPoint x="400" y="440" as="sourcePoint"/>
						<mxPoint x="450" y="390" as="targetPoint"/>
					</mxGeometry>
				</mxCell>
				<mxCell id="4940016000_4940019504" value="" style="endArrow=classic;html=1;" parent="1" source="4940016000" target="4940019504" edge="1">
					<mxGeometry width="50" height="50" relative="1" as="geometry">
						<mxPoint x="400" y="440" as="sourcePoint"/>
						<mxPoint x="450" y="390" as="targetPoint"/>
					</mxGeometry>
				</mxCell>
				<mxCell id="4940016000_4951356704" value="" style="endArrow=classic;html=1;" parent="1" source="4940016000" target="4951356704" edge="1">
					<mxGeometry width="50" height="50" relative="1" as="geometry">
						<mxPoint x="400" y="440" as="sourcePoint"/>
						<mxPoint x="450" y="390" as="targetPoint"/>
					</mxGeometry>
				</mxCell>
				<mxCell id="4940019504_4940019456" value="" style="endArrow=classic;html=1;" parent="1" source="4940019504" target="4940019456" edge="1">
					<mxGeometry width="50" height="50" relative="1" as="geometry">
						<mxPoint x="400" y="440" as="sourcePoint"/>
						<mxPoint x="450" y="390" as="targetPoint"/>
					</mxGeometry>
				</mxCell>
				<mxCell id="4940019504_4940019840" value="" style="endArrow=classic;html=1;" parent="1" source="4940019504" target="4940019840" edge="1">
					<mxGeometry width="50" height="50" relative="1" as="geometry">
						<mxPoint x="400" y="440" as="sourcePoint"/>
						<mxPoint x="450" y="390" as="targetPoint"/>
					</mxGeometry>
				</mxCell>
				<mxCell id="4951356704_4951349600" value="" style="endArrow=classic;html=1;" parent="1" source="4951356704" target="4951349600" edge="1">
					<mxGeometry width="50" height="50" relative="1" as="geometry">
						<mxPoint x="400" y="440" as="sourcePoint"/>
						<mxPoint x="450" y="390" as="targetPoint"/>
					</mxGeometry>
				</mxCell>
				<mxCell id="4951349600_4951352048" value="" style="endArrow=classic;html=1;" parent="1" source="4951349600" target="4951352048" edge="1">
					<mxGeometry width="50" height="50" relative="1" as="geometry">
						<mxPoint x="400" y="440" as="sourcePoint"/>
						<mxPoint x="450" y="390" as="targetPoint"/>
					</mxGeometry>
				</mxCell>
				<mxCell id="4951349600_4307813808" value="" style="endArrow=classic;html=1;" parent="1" source="4951349600" target="4307813808" edge="1">
					<mxGeometry width="50" height="50" relative="1" as="geometry">
						<mxPoint x="400" y="440" as="sourcePoint"/>
						<mxPoint x="450" y="390" as="targetPoint"/>
					</mxGeometry>
				</mxCell>
				<mxCell id="4951349600_4951353728" value="" style="endArrow=classic;html=1;" parent="1" source="4951349600" target="4951353728" edge="1">
					<mxGeometry width="50" height="50" relative="1" as="geometry">
						<mxPoint x="400" y="440" as="sourcePoint"/>
						<mxPoint x="450" y="390" as="targetPoint"/>
					</mxGeometry>
				</mxCell>
				<mxCell id="4951352048_4307813232" value="" style="endArrow=classic;html=1;" parent="1" source="4951352048" target="4307813232" edge="1">
					<mxGeometry width="50" height="50" relative="1" as="geometry">
						<mxPoint x="400" y="440" as="sourcePoint"/>
						<mxPoint x="450" y="390" as="targetPoint"/>
					</mxGeometry>
				</mxCell>
				<mxCell id="4951353728_4307813232" value="" style="endArrow=classic;html=1;" parent="1" source="4951353728" target="4307813232" edge="1">
					<mxGeometry width="50" height="50" relative="1" as="geometry">
						<mxPoint x="400" y="440" as="sourcePoint"/>
						<mxPoint x="450" y="390" as="targetPoint"/>
					</mxGeometry>
				</mxCell>
				<mxCell id="4951354112_4951348880" value="" style="endArrow=classic;html=1;" parent="1" source="4951354112" target="4951348880" edge="1">
					<mxGeometry width="50" height="50" relative="1" as="geometry">
						<mxPoint x="400" y="440" as="sourcePoint"/>
						<mxPoint x="450" y="390" as="targetPoint"/>
					</mxGeometry>
				</mxCell>
				<mxCell id="4951354112_4951352864" value="" style="endArrow=classic;html=1;" parent="1" source="4951354112" target="4951352864" edge="1">
					<mxGeometry width="50" height="50" relative="1" as="geometry">
						<mxPoint x="400" y="440" as="sourcePoint"/>
						<mxPoint x="450" y="390" as="targetPoint"/>
					</mxGeometry>
				</mxCell>
				<mxCell id="4951348880_4951344656" value="" style="endArrow=classic;html=1;" parent="1" source="4951348880" target="4951344656" edge="1">
					<mxGeometry width="50" height="50" relative="1" as="geometry">
						<mxPoint x="400" y="440" as="sourcePoint"/>
						<mxPoint x="450" y="390" as="targetPoint"/>
					</mxGeometry>
				</mxCell>
				<mxCell id="4951348880_4951345184" value="" style="endArrow=classic;html=1;" parent="1" source="4951348880" target="4951345184" edge="1">
					<mxGeometry width="50" height="50" relative="1" as="geometry">
						<mxPoint x="400" y="440" as="sourcePoint"/>
						<mxPoint x="450" y="390" as="targetPoint"/>
					</mxGeometry>
				</mxCell>
				<mxCell id="4951352864_4951344560" value="" style="endArrow=classic;html=1;" parent="1" source="4951352864" target="4951344560" edge="1">
					<mxGeometry width="50" height="50" relative="1" as="geometry">
						<mxPoint x="400" y="440" as="sourcePoint"/>
						<mxPoint x="450" y="390" as="targetPoint"/>
					</mxGeometry>
				</mxCell>
				<mxCell id="4951344560_4951354304" value="" style="endArrow=classic;html=1;" parent="1" source="4951344560" target="4951354304" edge="1">
					<mxGeometry width="50" height="50" relative="1" as="geometry">
						<mxPoint x="400" y="440" as="sourcePoint"/>
						<mxPoint x="450" y="390" as="targetPoint"/>
					</mxGeometry>
				</mxCell>
				<mxCell id="4951344560_4307813904" value="" style="endArrow=classic;html=1;" parent="1" source="4951344560" target="4307813904" edge="1">
					<mxGeometry width="50" height="50" relative="1" as="geometry">
						<mxPoint x="400" y="440" as="sourcePoint"/>
						<mxPoint x="450" y="390" as="targetPoint"/>
					</mxGeometry>
				</mxCell>
				<mxCell id="4951344560_4951353584" value="" style="endArrow=classic;html=1;" parent="1" source="4951344560" target="4951353584" edge="1">
					<mxGeometry width="50" height="50" relative="1" as="geometry">
						<mxPoint x="400" y="440" as="sourcePoint"/>
						<mxPoint x="450" y="390" as="targetPoint"/>
					</mxGeometry>
				</mxCell>
				<mxCell id="4951354304_4307813232" value="" style="endArrow=classic;html=1;" parent="1" source="4951354304" target="4307813232" edge="1">
					<mxGeometry width="50" height="50" relative="1" as="geometry">
						<mxPoint x="400" y="440" as="sourcePoint"/>
						<mxPoint x="450" y="390" as="targetPoint"/>
					</mxGeometry>
				</mxCell>
				<mxCell id="4951353584_4307813232" value="" style="endArrow=classic;html=1;" parent="1" source="4951353584" target="4307813232" edge="1">
					<mxGeometry width="50" height="50" relative="1" as="geometry">
						<mxPoint x="400" y="440" as="sourcePoint"/>
						<mxPoint x="450" y="390" as="targetPoint"/>
					</mxGeometry>
				</mxCell>
				<mxCell id="4951346480_4951345664" value="" style="endArrow=classic;html=1;" parent="1" source="4951346480" target="4951345664" edge="1">
					<mxGeometry width="50" height="50" relative="1" as="geometry">
						<mxPoint x="400" y="440" as="sourcePoint"/>
						<mxPoint x="450" y="390" as="targetPoint"/>
					</mxGeometry>
				</mxCell>
				<mxCell id="4951346480_4951354016" value="" style="endArrow=classic;html=1;" parent="1" source="4951346480" target="4951354016" edge="1">
					<mxGeometry width="50" height="50" relative="1" as="geometry">
						<mxPoint x="400" y="440" as="sourcePoint"/>
						<mxPoint x="450" y="390" as="targetPoint"/>
					</mxGeometry>
				</mxCell>
				<mxCell id="4951345664_4951353632" value="" style="endArrow=classic;html=1;" parent="1" source="4951345664" target="4951353632" edge="1">
					<mxGeometry width="50" height="50" relative="1" as="geometry">
						<mxPoint x="400" y="440" as="sourcePoint"/>
						<mxPoint x="450" y="390" as="targetPoint"/>
					</mxGeometry>
				</mxCell>
				<mxCell id="4951345664_4951357952" value="" style="endArrow=classic;html=1;" parent="1" source="4951345664" target="4951357952" edge="1">
					<mxGeometry width="50" height="50" relative="1" as="geometry">
						<mxPoint x="400" y="440" as="sourcePoint"/>
						<mxPoint x="450" y="390" as="targetPoint"/>
					</mxGeometry>
				</mxCell>
				<mxCell id="4951345664_4951346960" value="" style="endArrow=classic;html=1;" parent="1" source="4951345664" target="4951346960" edge="1">
					<mxGeometry width="50" height="50" relative="1" as="geometry">
						<mxPoint x="400" y="440" as="sourcePoint"/>
						<mxPoint x="450" y="390" as="targetPoint"/>
					</mxGeometry>
				</mxCell>
				<mxCell id="4951345664_4951343456" value="" style="endArrow=classic;html=1;" parent="1" source="4951345664" target="4951343456" edge="1">
					<mxGeometry width="50" height="50" relative="1" as="geometry">
						<mxPoint x="400" y="440" as="sourcePoint"/>
						<mxPoint x="450" y="390" as="targetPoint"/>
					</mxGeometry>
				</mxCell>
				<mxCell id="4951345664_4307813328" value="" style="endArrow=classic;html=1;" parent="1" source="4951345664" target="4307813328" edge="1">
					<mxGeometry width="50" height="50" relative="1" as="geometry">
						<mxPoint x="400" y="440" as="sourcePoint"/>
						<mxPoint x="450" y="390" as="targetPoint"/>
					</mxGeometry>
				</mxCell>
				<mxCell id="4951353632_4307813328" value="" style="endArrow=classic;html=1;" parent="1" source="4951353632" target="4307813328" edge="1">
					<mxGeometry width="50" height="50" relative="1" as="geometry">
						<mxPoint x="400" y="440" as="sourcePoint"/>
						<mxPoint x="450" y="390" as="targetPoint"/>
					</mxGeometry>
				</mxCell>
				<mxCell id="4951357952_4307813328" value="" style="endArrow=classic;html=1;" parent="1" source="4951357952" target="4307813328" edge="1">
					<mxGeometry width="50" height="50" relative="1" as="geometry">
						<mxPoint x="400" y="440" as="sourcePoint"/>
						<mxPoint x="450" y="390" as="targetPoint"/>
					</mxGeometry>
				</mxCell>
				<mxCell id="4951346960_4307813328" value="" style="endArrow=classic;html=1;" parent="1" source="4951346960" target="4307813328" edge="1">
					<mxGeometry width="50" height="50" relative="1" as="geometry">
						<mxPoint x="400" y="440" as="sourcePoint"/>
						<mxPoint x="450" y="390" as="targetPoint"/>
					</mxGeometry>
				</mxCell>
				<mxCell id="4951343456_4307813328" value="" style="endArrow=classic;html=1;" parent="1" source="4951343456" target="4307813328" edge="1">
					<mxGeometry width="50" height="50" relative="1" as="geometry">
						<mxPoint x="400" y="440" as="sourcePoint"/>
						<mxPoint x="450" y="390" as="targetPoint"/>
					</mxGeometry>
				</mxCell>
				<mxCell id="4951354016_4951350608" value="" style="endArrow=classic;html=1;" parent="1" source="4951354016" target="4951350608" edge="1">
					<mxGeometry width="50" height="50" relative="1" as="geometry">
						<mxPoint x="400" y="440" as="sourcePoint"/>
						<mxPoint x="450" y="390" as="targetPoint"/>
					</mxGeometry>
				</mxCell>
				<mxCell id="4951354016_4951347392" value="" style="endArrow=classic;html=1;" parent="1" source="4951354016" target="4951347392" edge="1">
					<mxGeometry width="50" height="50" relative="1" as="geometry">
						<mxPoint x="400" y="440" as="sourcePoint"/>
						<mxPoint x="450" y="390" as="targetPoint"/>
					</mxGeometry>
				</mxCell>
				<mxCell id="4951354016_4951355792" value="" style="endArrow=classic;html=1;" parent="1" source="4951354016" target="4951355792" edge="1">
					<mxGeometry width="50" height="50" relative="1" as="geometry">
						<mxPoint x="400" y="440" as="sourcePoint"/>
						<mxPoint x="450" y="390" as="targetPoint"/>
					</mxGeometry>
				</mxCell>
				<mxCell id="4951354016_4951359104" value="" style="endArrow=classic;html=1;" parent="1" source="4951354016" target="4951359104" edge="1">
					<mxGeometry width="50" height="50" relative="1" as="geometry">
						<mxPoint x="400" y="440" as="sourcePoint"/>
						<mxPoint x="450" y="390" as="targetPoint"/>
					</mxGeometry>
				</mxCell>
				<mxCell id="4951354016_4307813232" value="" style="endArrow=classic;html=1;" parent="1" source="4951354016" target="4307813232" edge="1">
					<mxGeometry width="50" height="50" relative="1" as="geometry">
						<mxPoint x="400" y="440" as="sourcePoint"/>
						<mxPoint x="450" y="390" as="targetPoint"/>
					</mxGeometry>
				</mxCell>
				<mxCell id="4951355456_4951344512" value="" style="endArrow=classic;html=1;" parent="1" source="4951355456" target="4951344512" edge="1">
					<mxGeometry width="50" height="50" relative="1" as="geometry">
						<mxPoint x="400" y="440" as="sourcePoint"/>
						<mxPoint x="450" y="390" as="targetPoint"/>
					</mxGeometry>
				</mxCell>
				<mxCell id="4951355456_4951350848" value="" style="endArrow=classic;html=1;" parent="1" source="4951355456" target="4951350848" edge="1">
					<mxGeometry width="50" height="50" relative="1" as="geometry">
						<mxPoint x="400" y="440" as="sourcePoint"/>
						<mxPoint x="450" y="390" as="targetPoint"/>
					</mxGeometry>
				</mxCell>
				<mxCell id="4951344512_4307813328" value="" style="endArrow=classic;html=1;" parent="1" source="4951344512" target="4307813328" edge="1">
					<mxGeometry width="50" height="50" relative="1" as="geometry">
						<mxPoint x="400" y="440" as="sourcePoint"/>
						<mxPoint x="450" y="390" as="targetPoint"/>
					</mxGeometry>
				</mxCell>
				<mxCell id="4951350848_4951344416" value="" style="endArrow=classic;html=1;" parent="1" source="4951350848" target="4951344416" edge="1">
					<mxGeometry width="50" height="50" relative="1" as="geometry">
						<mxPoint x="400" y="440" as="sourcePoint"/>
						<mxPoint x="450" y="390" as="targetPoint"/>
					</mxGeometry>
				</mxCell>
				<mxCell id="4951350848_4951348256" value="" style="endArrow=classic;html=1;" parent="1" source="4951350848" target="4951348256" edge="1">
					<mxGeometry width="50" height="50" relative="1" as="geometry">
						<mxPoint x="400" y="440" as="sourcePoint"/>
						<mxPoint x="450" y="390" as="targetPoint"/>
					</mxGeometry>
				</mxCell>
				<mxCell id="4951350848_4951348544" value="" style="endArrow=classic;html=1;" parent="1" source="4951350848" target="4951348544" edge="1">
					<mxGeometry width="50" height="50" relative="1" as="geometry">
						<mxPoint x="400" y="440" as="sourcePoint"/>
						<mxPoint x="450" y="390" as="targetPoint"/>
					</mxGeometry>
				</mxCell>
				<mxCell id="4951344416_4307813232" value="" style="endArrow=classic;html=1;" parent="1" source="4951344416" target="4307813232" edge="1">
					<mxGeometry width="50" height="50" relative="1" as="geometry">
						<mxPoint x="400" y="440" as="sourcePoint"/>
						<mxPoint x="450" y="390" as="targetPoint"/>
					</mxGeometry>
				</mxCell>
				<mxCell id="4951348256_4307813232" value="" style="endArrow=classic;html=1;" parent="1" source="4951348256" target="4307813232" edge="1">
					<mxGeometry width="50" height="50" relative="1" as="geometry">
						<mxPoint x="400" y="440" as="sourcePoint"/>
						<mxPoint x="450" y="390" as="targetPoint"/>
					</mxGeometry>
				</mxCell>
				<mxCell id="4951348544_4307813232" value="" style="endArrow=classic;html=1;" parent="1" source="4951348544" target="4307813232" edge="1">
					<mxGeometry width="50" height="50" relative="1" as="geometry">
						<mxPoint x="400" y="440" as="sourcePoint"/>
						<mxPoint x="450" y="390" as="targetPoint"/>
					</mxGeometry>
				</mxCell>
				<mxCell id="4951343744_4951348064" value="" style="endArrow=classic;html=1;" parent="1" source="4951343744" target="4951348064" edge="1">
					<mxGeometry width="50" height="50" relative="1" as="geometry">
						<mxPoint x="400" y="440" as="sourcePoint"/>
						<mxPoint x="450" y="390" as="targetPoint"/>
					</mxGeometry>
				</mxCell>
				<mxCell id="4951348064_4307813232" value="" style="endArrow=classic;html=1;" parent="1" source="4951348064" target="4307813232" edge="1">
					<mxGeometry width="50" height="50" relative="1" as="geometry">
						<mxPoint x="400" y="440" as="sourcePoint"/>
						<mxPoint x="450" y="390" as="targetPoint"/>
					</mxGeometry>
				</mxCell>
			</root>
		</mxGraphModel>
	</diagram>
</mxfile>
